<svg data-v-423bf9ae="" xmlns="http://www.w3.org/2000/svg" viewBox="0 0 455 90" class="iconLeft"><!----><!----><!----><g data-v-423bf9ae="" id="17a51615-d023-4171-b875-a53c383d6e2e" fill="#1F321D" transform="matrix(5.424955053999871,0,0,5.424955053999871,187.94794356120417,5.886075862381134)"><path d="M0.43 2.52L8.78 2.52L8.78 5.46L8.05 5.46L7.60 3.36L5.31 3.36L5.31 11.66L6.79 12.00L6.79 12.60L2.42 12.60L2.42 12.00L3.91 11.66L3.91 3.36L1.60 3.36L1.16 5.46L0.43 5.46L0.43 2.52ZM13.93 5.85L13.93 5.85L13.93 5.85Q13.80 5.77 13.65 5.77L13.65 5.77L13.65 5.77Q13.38 5.77 13.09 6.10L13.09 6.10L13.09 6.10Q12.80 6.43 12.57 6.93L12.57 6.93L12.57 6.93Q12.38 7.41 12.26 7.97L12.26 7.97L12.26 7.97Q12.15 8.54 12.15 9.14L12.15 9.14L12.15 11.76L13.66 12.03L13.66 12.60L9.72 12.60L9.72 12.03L10.79 11.76L10.79 5.88L9.72 5.61L9.72 5.04L11.73 5.04L12.04 6.89L12.10 6.89L12.10 6.89Q12.42 5.94 12.96 5.42L12.96 5.42L12.96 5.42Q13.50 4.90 14.17 4.90L14.17 4.90L14.17 4.90Q14.71 4.90 15.08 5.24L15.08 5.24L15.08 5.24Q15.44 5.59 15.44 6.16L15.44 6.16L15.44 6.16Q15.44 6.58 15.22 6.82L15.22 6.82L15.22 6.82Q15.01 7.07 14.64 7.07L14.64 7.07L14.64 7.07Q14.28 7.07 14.07 6.84L14.07 6.84L14.07 6.84Q13.86 6.61 13.86 6.23L13.86 6.23L13.86 6.23Q13.86 6.15 13.87 6.08L13.87 6.08L13.87 6.08Q13.89 6.01 13.93 5.85ZM16.16 10.96L16.16 10.96L16.16 10.96Q16.16 10.42 16.40 10.00L16.40 10.00L16.40 10.00Q16.65 9.58 17.18 9.25L17.18 9.25L17.18 9.25Q17.71 8.92 18.55 8.68L18.55 8.68L18.55 8.68Q19.39 8.44 20.57 8.26L20.57 8.26L20.57 8.26Q20.50 7.43 20.40 6.97L20.40 6.97L20.40 6.97Q20.31 6.51 20.16 6.23L20.16 6.23L20.16 6.23Q19.96 5.87 19.61 5.69L19.61 5.69L19.61 5.69Q19.26 5.52 18.86 5.52L18.86 5.52L18.86 5.52Q18.47 5.52 18.15 5.66L18.15 5.66L18.15 5.66Q17.84 5.80 17.72 6.03L17.72 6.03L17.72 6.03Q17.92 6.19 18.01 6.40L18.01 6.40L18.01 6.40Q18.10 6.62 18.10 6.82L18.10 6.82L18.10 6.82Q18.10 7.17 17.87 7.37L17.87 7.37L17.87 7.37Q17.64 7.57 17.30 7.57L17.30 7.57L17.30 7.57Q16.97 7.57 16.75 7.35L16.75 7.35L16.75 7.35Q16.53 7.13 16.53 6.72L16.53 6.72L16.53 6.72Q16.53 6.29 16.77 5.94L16.77 5.94L16.77 5.94Q17.01 5.60 17.39 5.37L17.39 5.37L17.39 5.37Q17.78 5.14 18.26 5.02L18.26 5.02L18.26 5.02Q18.75 4.90 19.22 4.90L19.22 4.90L19.22 4.90Q20.41 4.90 21.10 5.59L21.10 5.59L21.10 5.59Q21.97 6.45 21.97 8.67L21.97 8.67L21.97 10.70L21.97 10.70Q21.97 11.40 22.06 11.65L22.06 11.65L22.06 11.65Q22.15 11.91 22.46 11.91L22.46 11.91L23.09 11.91L23.09 12.33L23.09 12.33Q22.08 12.74 21.52 12.74L21.52 12.74L21.52 12.74Q21.31 12.74 21.17 12.67L21.17 12.67L21.17 12.67Q21.03 12.60 20.94 12.42L20.94 12.42L20.94 12.42Q20.86 12.25 20.82 11.96L20.82 11.96L20.82 11.96Q20.79 11.66 20.79 11.21L20.79 11.21L20.73 11.21L20.73 11.21Q20.30 11.93 19.59 12.33L19.59 12.33L19.59 12.33Q18.87 12.74 18.05 12.74L18.05 12.74L18.05 12.74Q17.16 12.74 16.66 12.27L16.66 12.27L16.66 12.27Q16.16 11.80 16.16 10.96ZM18.63 11.93L18.63 11.93L18.63 11.93Q19.03 11.93 19.45 11.72L19.45 11.72L19.45 11.72Q19.88 11.52 20.17 11.16L20.17 11.16L20.17 11.16Q20.61 10.63 20.61 9.59L20.61 9.59L20.61 9.59Q20.61 9.35 20.59 9.12L20.59 9.12L20.59 9.12Q20.58 8.89 20.55 8.68L20.55 8.68L20.55 8.68Q19.70 8.85 19.13 9.03L19.13 9.03L19.13 9.03Q18.56 9.21 18.22 9.44L18.22 9.44L18.22 9.44Q17.88 9.67 17.74 9.97L17.74 9.97L17.74 9.97Q17.60 10.28 17.60 10.67L17.60 10.67L17.60 10.67Q17.60 11.27 17.87 11.60L17.87 11.60L17.87 11.60Q18.14 11.93 18.63 11.93ZM27.71 12.74L26.26 12.74L23.77 5.88L22.99 5.61L22.99 5.04L26.12 5.04L26.12 5.61L25.20 5.88L27.17 11.75L27.23 11.75L29.20 5.88L28.34 5.61L28.34 5.04L31.00 5.04L31.00 5.61L30.18 5.88L27.71 12.74ZM37.84 8.90L32.96 8.90L32.96 8.90Q32.96 9.93 33.24 10.60L33.24 10.60L33.24 10.60Q33.52 11.26 34.03 11.53L34.03 11.53L34.03 11.53Q34.54 11.80 35.15 11.80L35.15 11.80L35.15 11.80Q35.83 11.80 36.37 11.53L36.37 11.53L36.37 11.53Q36.90 11.26 37.34 10.78L37.34 10.78L37.79 11.12L37.79 11.12Q37.53 11.45 37.25 11.75L37.25 11.75L37.25 11.75Q36.96 12.04 36.60 12.26L36.60 12.26L36.60 12.26Q36.23 12.49 35.78 12.61L35.78 12.61L35.78 12.61Q35.34 12.74 34.79 12.74L34.79 12.74L34.79 12.74Q33.82 12.74 33.08 12.33L33.08 12.33L33.08 12.33Q32.34 11.91 31.95 11.12L31.95 11.12L31.95 11.12Q31.74 10.68 31.64 10.16L31.64 10.16L31.64 10.16Q31.54 9.63 31.54 9.02L31.54 9.02L31.54 9.02Q31.54 7.04 32.44 5.97L32.44 5.97L32.44 5.97Q33.33 4.90 34.90 4.90L34.90 4.90L34.90 4.90Q36.34 4.90 37.11 5.79L37.11 5.79L37.11 5.79Q37.88 6.68 37.88 8.25L37.88 8.25L37.88 8.25Q37.88 8.39 37.88 8.50L37.88 8.50L37.88 8.50Q37.87 8.62 37.84 8.90L37.84 8.90ZM34.82 5.66L34.82 5.66L34.82 5.66Q33.14 5.66 32.97 8.22L32.97 8.22L36.47 8.22L36.47 7.76L36.47 7.76Q36.47 6.75 36.04 6.20L36.04 6.20L36.04 6.20Q35.62 5.66 34.82 5.66ZM39.97 11.76L39.97 2.52L38.89 2.25L38.89 1.68L41.33 1.68L41.33 11.76L42.41 12.03L42.41 12.60L38.89 12.60L38.89 12.03L39.97 11.76ZM46.23 12.10L46.23 12.10L46.23 12.10Q47.03 12.10 47.52 11.78L47.52 11.78L47.52 11.78Q48.01 11.47 48.01 10.88L48.01 10.88L48.01 10.88Q48.01 10.53 47.82 10.29L47.82 10.29L47.82 10.29Q47.64 10.05 47.35 9.88L47.35 9.88L47.35 9.88Q47.07 9.72 46.71 9.60L46.71 9.60L46.71 9.60Q46.35 9.48 46.02 9.38L46.02 9.38L46.02 9.38Q45.58 9.25 45.17 9.09L45.17 9.09L45.17 9.09Q44.76 8.92 44.43 8.66L44.43 8.66L44.43 8.66Q44.10 8.40 43.90 8.03L43.90 8.03L43.90 8.03Q43.71 7.66 43.71 7.13L43.71 7.13L43.71 7.13Q43.71 6.12 44.44 5.51L44.44 5.51L44.44 5.51Q45.18 4.90 46.49 4.90L46.49 4.90L46.49 4.90Q47.61 4.90 48.27 5.37L48.27 5.37L48.27 5.37Q48.92 5.84 48.92 6.65L48.92 6.65L48.92 6.65Q48.92 7.10 48.72 7.35L48.72 7.35L48.72 7.35Q48.52 7.60 48.16 7.60L48.16 7.60L48.16 7.60Q47.84 7.60 47.63 7.41L47.63 7.41L47.63 7.41Q47.42 7.21 47.42 6.90L47.42 6.90L47.42 6.90Q47.42 6.64 47.56 6.42L47.56 6.42L47.56 6.42Q47.70 6.20 47.92 6.10L47.92 6.10L47.92 6.10Q47.71 5.81 47.38 5.68L47.38 5.68L47.38 5.68Q47.05 5.54 46.54 5.54L46.54 5.54L46.54 5.54Q44.86 5.54 44.86 6.73L44.86 6.73L44.86 6.73Q44.86 7.06 44.97 7.27L44.97 7.27L44.97 7.27Q45.08 7.48 45.30 7.63L45.30 7.63L45.30 7.63Q45.53 7.78 45.86 7.90L45.86 7.90L45.86 7.90Q46.19 8.02 46.62 8.16L46.62 8.16L46.62 8.16Q47.10 8.32 47.56 8.48L47.56 8.48L47.56 8.48Q48.02 8.65 48.39 8.90L48.39 8.90L48.39 8.90Q48.76 9.16 48.99 9.53L48.99 9.53L48.99 9.53Q49.22 9.91 49.22 10.47L49.22 10.47L49.22 10.47Q49.22 11.02 49 11.44L49 11.44L49 11.44Q48.78 11.86 48.37 12.14L48.37 12.14L48.37 12.14Q47.96 12.43 47.40 12.59L47.40 12.59L47.40 12.59Q46.84 12.74 46.17 12.74L46.17 12.74L46.17 12.74Q44.93 12.74 44.18 12.24L44.18 12.24L44.18 12.24Q43.43 11.75 43.43 10.88L43.43 10.88L43.43 10.88Q43.43 10.43 43.63 10.17L43.63 10.17L43.63 10.17Q43.83 9.91 44.21 9.91L44.21 9.91L44.21 9.91Q44.55 9.91 44.78 10.11L44.78 10.11L44.78 10.11Q45.01 10.30 45.01 10.63L45.01 10.63L45.01 10.63Q45.01 10.89 44.86 11.13L44.86 11.13L44.86 11.13Q44.72 11.37 44.51 11.48L44.51 11.48L44.51 11.48Q44.69 11.76 45.16 11.93L45.16 11.93L45.16 11.93Q45.63 12.10 46.23 12.10Z"></path></g><defs data-v-423bf9ae=""><linearGradient data-v-423bf9ae="" gradientTransform="rotate(25)" id="8d983f7b-7428-4d10-8dfd-a65a785d4d51" x1="0%" y1="0%" x2="100%" y2="0%"><stop data-v-423bf9ae="" offset="0%" style="stop-color: rgb(0, 238, 225); stop-opacity: 1;"></stop><stop data-v-423bf9ae="" offset="100%" style="stop-color: rgb(255, 210, 51); stop-opacity: 1;"></stop></linearGradient></defs><g data-v-423bf9ae="" id="63909188-43e6-4027-8d56-2f929bfc2751" transform="matrix(1.892134743511971,0,0,1.892134743511971,-8.500769714441574,-53.492238791292394)" stroke="none" fill="url(#8d983f7b-7428-4d10-8dfd-a65a785d4d51)"><path d="M91.516 28.766l-33.74 14.29-6.08-8.605a2.549 2.549 0 0 0-3.076-.876l-2.177.922-1.815-4.286a2.422 2.422 0 1 0-4.461 1.889l1.815 4.286-2.446 1.036a2.55 2.55 0 0 0-1.498 2.885l2.194 10.18L6.31 64.853a2.423 2.423 0 0 0 1.889 4.461l6.285-2.662a8.793 8.793 0 0 0 .671 4.081c1.906 4.5 7.118 6.611 11.619 4.705s6.611-7.118 4.705-11.619a8.8 8.8 0 0 0-2.464-3.321l10.296-4.361a13.856 13.856 0 0 0 1.074 6.059c3.001 7.087 11.209 10.411 18.296 7.409s10.411-11.209 7.409-18.296a13.847 13.847 0 0 0-3.605-4.988l10.3-4.363a8.793 8.793 0 0 0 .671 4.081c1.906 4.5 7.118 6.611 11.619 4.705s6.611-7.118 4.705-11.619a8.8 8.8 0 0 0-2.464-3.321l6.088-2.578a2.42 2.42 0 1 0-1.888-4.46zM48.717 39.07l2.724 3.855a13.86 13.86 0 0 0-3.645.976 13.933 13.933 0 0 0-3.334 2.013l-.995-4.62 5.25-2.224zM27.019 65.709c.864 2.041-.093 4.404-2.134 5.268s-4.404-.092-5.268-2.133a4.025 4.025 0 0 1 2.133-5.269 4.025 4.025 0 0 1 5.269 2.134zm29.773-.564c-4.627 1.96-9.985-.21-11.945-4.837s.21-9.986 4.837-11.945c4.627-1.96 9.986.21 11.945 4.837s-.21 9.985-4.837 11.945zM85.32 41.016c.864 2.041-.093 4.404-2.134 5.268s-4.404-.092-5.268-2.133c-.864-2.041.093-4.404 2.133-5.269s4.405.094 5.269 2.134z"></path><circle cx="53.238" cy="56.753" r="3.114"></circle></g><!----></svg>